<?xml version="1.0" standalone="no"?>
<!DOCTYPE svg PUBLIC "-//W3C//DTD SVG 20010904//EN"
 "http://www.w3.org/TR/2001/REC-SVG-20010904/DTD/svg10.dtd">
<svg version="1.0" xmlns="http://www.w3.org/2000/svg"
 width="512.000000pt" height="512.000000pt" viewBox="0 0 512.000000 512.000000"
 preserveAspectRatio="xMidYMid meet">
<metadata>
Created by potrace 1.11, written by Peter Selinger 2001-2013
</metadata>
<g transform="translate(0.000000,512.000000) scale(0.100000,-0.100000)"
fill="#000000" stroke="none">
<path d="M2408 5105 c-2 -1 -34 -6 -73 -9 -305 -29 -587 -125 -895 -303 -63
-36 -212 -149 -290 -218 -298 -264 -506 -597 -616 -980 -10 -33 -19 -69 -21
-80 -2 -11 -10 -52 -18 -92 -24 -116 -30 -188 -30 -373 0 -182 9 -311 30 -405
3 -16 8 -43 11 -60 40 -229 175 -546 345 -805 67 -103 215 -302 262 -352 7 -8
41 -47 77 -88 143 -163 504 -525 726 -727 46 -41 244 -224 274 -253 14 -14 69
-64 121 -112 52 -48 128 -118 169 -157 41 -39 78 -71 81 -71 3 0 39 32 80 71
86 83 349 333 419 399 436 411 630 604 849 845 15 17 52 59 82 95 29 36 56 67
59 70 19 17 149 195 208 282 133 199 229 390 296 588 13 39 22 70 20 70 -3 0
0 8 5 19 12 22 47 174 57 246 3 28 8 59 10 70 20 104 20 437 0 542 -3 11 -7
43 -11 70 -17 119 -74 318 -131 449 -109 254 -241 451 -433 644 -174 176 -337
294 -561 406 -185 92 -438 173 -623 199 -18 2 -54 7 -82 11 -50 7 -391 15
-397 9z"/>
</g>
</svg>
